<?xml version="1.0" encoding="UTF-8"?>
<svg id="Layer_1" data-name="Layer 1" xmlns="http://www.w3.org/2000/svg" xmlns:xlink="http://www.w3.org/1999/xlink" viewBox="0 0 708.66 425.2">
  <defs>
    <style>
      .cls-1 {
        fill: none;
      }

      .cls-2, .cls-3 {
        fill: #1a3053;
      }

      .cls-4 {
        stroke: #7a7a7a;
        stroke-width: .25px;
      }

      .cls-4, .cls-3, .cls-5 {
        stroke-miterlimit: 10;
      }

      .cls-4, .cls-5, .cls-6, .cls-7 {
        fill: #848484;
      }

      .cls-8 {
        fill: #006f36;
      }

      .cls-3 {
        stroke: #1e1819;
        stroke-width: .19px;
      }

      .cls-5 {
        stroke: #57585a;
        stroke-width: .76px;
      }

      .cls-9 {
        clip-path: url(#clippath);
      }

      .cls-7 {
        fill-rule: evenodd;
      }
    </style>
    <clipPath id="clippath">
      <rect class="cls-1" x="520.97" y="139.42" width="7.71" height="150.8"/>
    </clipPath>
  </defs>
  <g>
    <path class="cls-6" d="M261.15,105.89l-8.29-4.86-.52-29.32c-7.75-2.84-15.8-5.04-24.09-6.54l-14.88,25.12h-22.07l-14.88-25.12c-8.31,1.5-16.37,3.71-24.13,6.55l-.51,29.32-19.11,11.2-25.23-14.19c-6.38,5.47-12.29,11.47-17.68,17.95l13.98,25.62-11.03,19.4-28.88.52c-2.8,7.88-4.98,16.07-6.45,24.5l24.75,15.11v22.41s-24.74,15.11-24.74,15.11c1.48,8.43,3.65,16.62,6.46,24.5l28.88.52,11.04,19.4-13.97,25.62c5.38,6.48,11.3,12.48,17.68,17.95l25.23-14.19,19.11,11.2.52,29.32c7.76,2.85,15.83,5.05,24.13,6.55l14.88-25.13h11.02v-21.94c-42,0-97.65-39.36-97.65-100.13,0-55.67,60.55-134.89,148.88-93.02l7.59-13.46Z"/>
    <path class="cls-5" d="M214.13,334.09l-.08-21.39s28.88.12,38.93-11.73h398.01v33.13l-436.86-.02Z"/>
    <path class="cls-6" d="M228.06,284.64c3.18-4.45,14.5-19.17,31.11-20.03,3.7-.19,13.64-.71,17.38,5.61,1.93,3.26,1.44,7.05.94,9.23-3.05-2.36-7.14-4.78-12.29-6.1-18.86-4.83-35.07,9.41-37.14,11.3Z"/>
    <g>
      <path class="cls-7" d="M255.26,218.17h0s0,0,0,0c0-.1,0-.2,0-.3,0-.11,0-.22,0-.33,0-.14.02-.28.04-.42,0-.08.01-.16.03-.23.02-.13.04-.25.07-.38.02-.1.04-.2.07-.3.03-.1.06-.21.09-.31.05-.15.1-.3.16-.45.01-.03.02-.06.04-.09.04-.11.09-.21.14-.32.1-.2.2-.4.32-.6h0c.25-.41.55-.82.9-1.22-.02,0,.95-1,1.07-1.11h0c3-2.9,7.43-5.94,7.62-11.35h0s.51-4.75.51-4.75l-12.62,3.63c-.09-.2-.16-.39-.22-.59-.04-.13-.07-.27-.11-.4-.02-.08-.04-.15-.05-.23-.03-.12-.04-.24-.06-.37-.02-.11-.03-.22-.04-.34,0-.09-.01-.18-.02-.26,0-.15,0-.31,0-.46,0-.06,0-.12,0-.19,0-.08.01-.16.02-.24.02-.24.05-.49.11-.74h0c.1-.48.25-.96.44-1.46-.02.01.56-1.26.63-1.41h0c1.84-3.77,4.98-8.16,3.34-13.31h0s-1.12-4.64-1.12-4.64l-10.63,7.79s-.03-.04-.04-.05c-.13-.14-.25-.28-.36-.43-.09-.12-.18-.26-.27-.39-.03-.05-.06-.09-.09-.14-.08-.12-.14-.25-.21-.38-.04-.08-.08-.15-.11-.23-.05-.1-.09-.21-.14-.31-.05-.12-.1-.25-.14-.38-.02-.07-.05-.14-.07-.22,0-.03-.01-.06-.02-.08-.08-.27-.14-.56-.18-.86-.07-.48-.09-.99-.08-1.53-.02.02.1-1.38.12-1.55h0c.46-4.17,1.93-9.39-1.35-13.66h0s-2.61-3.97-2.61-3.97l-7.37,11.01c-.19-.1-.37-.2-.55-.32-.1-.07-.2-.14-.3-.21-.08-.06-.15-.11-.23-.17-.09-.07-.17-.15-.26-.22-.09-.08-.18-.16-.26-.25-.06-.06-.11-.12-.16-.17-.11-.12-.22-.25-.32-.38-.03-.04-.06-.07-.09-.11-.03-.04-.06-.08-.08-.12-.16-.23-.32-.46-.45-.73h0c-.23-.43-.42-.9-.59-1.4,0,.02-.37-1.33-.41-1.5h0c-.98-4.08-1.35-9.49-5.87-12.37h0s-3.79-2.83-3.79-2.83l-3.21,12.91c-.21-.02-.42-.06-.62-.11-.13-.03-.26-.07-.39-.11-.07-.02-.15-.04-.22-.07-.12-.04-.24-.09-.36-.14-.09-.04-.18-.07-.26-.11-.1-.05-.2-.1-.3-.15-.12-.07-.25-.13-.37-.21-.05-.03-.09-.06-.14-.09-.07-.05-.15-.1-.22-.15-.19-.13-.37-.27-.54-.43-.37-.33-.71-.71-1.05-1.14,0,.02-.8-1.12-.89-1.27h0c-2.3-3.49-4.47-8.45-9.68-9.59h0s-4.52-1.34-4.52-1.34l1.33,13.25c-.2.05-.4.08-.6.11-.16.02-.33.03-.49.04-.05,0-.09,0-.14,0-.15,0-.29,0-.44,0-.08,0-.17,0-.25-.01-.11,0-.23-.02-.34-.04-.13-.02-.26-.04-.39-.07-.07-.02-.14-.03-.22-.05-.05-.01-.1-.03-.15-.04-.25-.06-.51-.15-.76-.25h0c-.44-.18-.89-.41-1.34-.69,0,.02-1.13-.77-1.26-.88h0c-3.33-2.49-7.05-6.39-12.33-5.65h0s-4.69.31-4.69.31l5.71,11.98c-.18.12-.36.23-.54.32-.12.06-.24.12-.36.17-.07.03-.15.07-.22.1-.12.05-.23.09-.35.13-.1.03-.2.07-.31.1-.09.02-.17.04-.26.06-.15.03-.3.06-.46.09-.06,0-.11.02-.17.02-.07.01-.15.02-.22.02-.25.02-.5.03-.76.03h0c-.48-.01-.97-.08-1.49-.19.01.02-1.33-.34-1.49-.39h0c-3.98-1.18-8.78-3.56-13.49-1.02h0s-4.3,1.93-4.3,1.93l9.41,9.28c-.13.18-.26.34-.4.5-.08.09-.18.18-.27.27-.06.06-.12.12-.19.18-.09.09-.19.16-.29.24-.08.06-.16.12-.24.18-.09.06-.18.12-.27.18-.12.08-.24.15-.37.22-.05.03-.11.06-.16.09-.04.02-.07.04-.11.05-.25.13-.51.24-.79.33h0c-.46.15-.94.26-1.47.34.02.01-1.36.14-1.52.15h0c-4.13.27-9.45-.29-13.03,3.72h0s-3.39,3.3-3.39,3.3l11.96,5.45c-.06.21-.13.4-.21.6-.05.13-.11.25-.17.38-.03.07-.07.14-.1.21-.06.11-.12.21-.18.32-.06.1-.12.19-.18.29-.05.07-.1.14-.15.21-.1.13-.2.26-.31.38-.03.03-.06.07-.09.11-.06.07-.12.13-.18.19-.17.17-.35.34-.55.49h0c-.38.3-.8.58-1.26.83.02,0-1.23.61-1.38.67h0c-3.79,1.69-8.98,3-10.99,8.02h0s-2.08,4.28-2.08,4.28l13.08.97c.01.21.01.42,0,.63,0,.16-.02.31-.04.47,0,.06-.01.11-.02.17-.02.14-.05.28-.08.42-.02.09-.04.18-.06.26-.03.1-.06.2-.09.31-.04.13-.09.26-.13.39-.03.07-.05.15-.08.22-.02.06-.05.11-.07.17-.11.24-.23.47-.37.7h0c-.25.41-.56.82-.9,1.22.02,0-.95.99-1.07,1.11h0c-2.99,2.9-7.43,5.94-7.62,11.35h0s-.51,4.75-.51,4.75l12.62-3.63c.08.19.15.39.22.59.04.14.08.29.11.43.02.06.03.13.05.19.03.13.05.26.06.39.01.1.03.2.04.3,0,.1.01.19.02.29,0,.15,0,.3,0,.45,0,.06,0,.13,0,.19,0,.08-.01.17-.02.25-.02.24-.05.48-.1.73h0c-.1.48-.25.96-.44,1.46.02-.01-.56,1.27-.63,1.41h0c-1.84,3.77-4.98,8.16-3.34,13.31h0s1.12,4.64,1.12,4.64l10.63-7.79c.14.15.28.31.4.48.09.12.17.25.26.37.03.05.07.1.1.16.07.12.14.24.2.36.04.08.08.16.12.24.05.1.09.2.13.3.05.12.1.25.14.38.02.07.05.15.07.22.02.05.03.1.04.16.07.25.13.51.16.78h0c.07.48.09.99.08,1.52.02-.02-.1,1.38-.12,1.55h0c-.46,4.17-1.93,9.39,1.35,13.66h0s2.61,3.97,2.61,3.97l7.37-11.02c.19.1.37.2.55.32.1.07.2.14.3.22.07.05.15.11.22.16.09.07.18.16.27.24.08.07.16.15.24.23.07.07.13.14.19.21.09.1.18.2.26.31.06.07.11.14.17.21,0,.01.02.03.03.04.17.23.33.49.47.76h0c.23.43.42.9.59,1.4,0-.02.37,1.33.41,1.5h0c.98,4.08,1.35,9.5,5.87,12.37h0s3.79,2.83,3.79,2.83l3.21-12.91.06-.23c-.04.14-.06.23-.06.23.21.02.41.06.62.11.13.03.26.07.39.11.07.02.15.04.22.07.12.04.24.09.36.14.09.04.18.07.27.12.1.05.19.09.29.14.13.07.26.14.38.22.04.03.08.05.12.08.08.05.16.11.24.16.19.14.38.28.56.45.36.32.7.7,1.02,1.12,0-.02.8,1.12.89,1.27h0c2.29,3.49,4.47,8.45,9.68,9.59h0s4.51,1.34,4.51,1.34l-1.33-13.25c.21-.05.42-.09.62-.12.12-.02.24-.02.37-.03.09,0,.18-.02.27-.02.12,0,.24,0,.36,0,.11,0,.21,0,.32.02.1,0,.2.02.3.03.14.02.27.04.41.07.07.02.14.03.22.05.05.01.1.03.14.04.26.07.51.15.77.25h0c.44.18.89.41,1.34.69,0-.02,1.13.78,1.27.88h0c3.33,2.49,7.05,6.39,12.33,5.65h0s4.69-.31,4.69-.31l-5.18-12.3c.13-.07.27-.13.4-.19.06-.03.11-.05.17-.08.13-.05.26-.1.39-.14.09-.03.17-.06.26-.08.11-.03.21-.05.32-.08.14-.03.28-.06.42-.08.05,0,.11-.02.16-.02.09-.01.18-.02.27-.03.23-.02.47-.03.72-.02h0c.48.02.98.08,1.49.18-.01-.02,1.33.34,1.48.39h0c3.98,1.18,8.78,3.56,13.49,1.02h0s4.3-1.92,4.3-1.92l-9.4-9.28c.12-.17.26-.33.4-.49.09-.1.19-.19.28-.29.06-.06.12-.12.18-.17.09-.08.18-.16.28-.23.09-.07.17-.14.26-.2.08-.06.16-.11.24-.16.12-.07.23-.15.36-.21.08-.04.15-.09.23-.12,0,0,.02,0,.03-.01.26-.13.54-.25.83-.34h0c.46-.15.94-.27,1.47-.34-.02-.01,1.36-.14,1.52-.15h0c4.13-.27,9.45.29,13.02-3.72h0s3.39-3.3,3.39-3.3l-11.96-5.45c.06-.21.13-.41.21-.61.04-.11.1-.22.15-.32.04-.09.08-.18.13-.27.05-.1.11-.19.17-.29.06-.11.13-.21.2-.31.05-.07.09-.13.14-.2.09-.12.19-.24.29-.36.05-.06.1-.12.16-.18.02-.02.04-.04.06-.06.19-.2.4-.4.63-.58h0c.38-.3.8-.57,1.26-.83-.02,0,1.23-.6,1.38-.67h0c3.79-1.69,8.98-3,10.99-8.02h0s2.07-4.28,2.07-4.28l-13.08-.97ZM189.91,261.68l.07-.28s-.03.11-.07.28ZM206.92,263.11c.01.13.03.34.06.59l-.06-.59ZM207.21,266l.06.59c-.01-.13-.03-.34-.06-.59ZM202.86,251.14c-20.47,0-37.13-16.91-37.13-37.7s16.66-37.7,37.13-37.7,37.13,16.91,37.13,37.7-16.66,37.7-37.13,37.7Z"/>
      <path class="cls-7" d="M202.86,182.8c-16.64,0-30.18,13.75-30.18,30.64s13.54,30.64,30.18,30.64,30.18-13.75,30.18-30.64-13.54-30.64-30.18-30.64ZM202.77,233.87c-10.82,0-19.59-8.9-19.59-19.89,0-9.32,6.32-17.14,14.84-19.3v-4.38h9.49v4.38c8.53,2.15,14.84,9.97,14.84,19.3,0,10.98-8.77,19.89-19.59,19.89Z"/>
    </g>
    <path class="cls-3" d="M267.67,105.89l-8.29-4.86-.52-29.32c-7.75-2.84-15.8-5.04-24.09-6.54l-14.88,25.12h-22.07l-14.88-25.12c-8.31,1.5-16.37,3.71-24.13,6.55l-.51,29.32-19.11,11.2-25.23-14.19c-6.38,5.47-12.29,11.47-17.68,17.95l13.98,25.62-11.03,19.4-28.88.52c-2.8,7.88-4.98,16.07-6.45,24.5l24.75,15.11v22.41s-24.74,15.11-24.74,15.11c1.48,8.43,3.65,16.62,6.46,24.5l28.88.52,11.04,19.4-13.97,25.62c5.38,6.48,11.3,12.48,17.68,17.95l25.23-14.19,19.11,11.2.52,29.32c7.76,2.85,15.83,5.05,24.13,6.55l14.88-25.13h11.02v-21.94c-42,0-97.65-39.36-97.65-100.13,0-55.67,58.34-129.35,146.66-87.48"/>
  </g>
  <g>
    <path class="cls-8" d="M282.85,148.29h29.83l24.19,32.4h1.38l24.19-32.4h29.83v102.18h-30.24v-58.82h-1.38l-22.4,30.94h-1.38l-22.4-30.94h-1.38v58.82h-30.24v-102.18Z"/>
    <path class="cls-8" d="M404.49,224.19h51.82c4.95,0,7.01-2.04,7.01-5.55,0-4.09-2.06-6.13-7.15-6.13h-22.95c-17.59,0-30.65-11.24-30.65-32.26s13.06-31.97,30.65-31.97h55.81v26.27h-49.48c-3.71,0-6.87,1.46-6.87,5.84s3.16,5.84,6.87,5.84h23.5c18.42,0,30.65,11.09,30.65,31.53s-12.23,32.7-30.65,32.7h-58.55v-26.27Z"/>
    <path class="cls-8" d="M558.35,148.29h58.97c20.89,0,33.68,13.14,33.68,34.16s-12.78,34.16-33.68,34.16h-27.35v33.86h-31.61v-102.18ZM611.13,190.33c4.4,0,7.97-2.19,7.97-7.88,0-5.99-3.57-7.88-7.97-7.88h-21.17v15.76h21.17Z"/>
  </g>
  <polyline class="cls-4" points="535.68 135.48 535.68 261.27 535.68 135.48 506.1 135.48 506.11 261.27 535.68 261.27"/>
  <path class="cls-5" d="M571.96,135.14h-140.39l3.06-5.61c29.76-15.12,30.06-15.3,30.06-15.3,9.88-2.47,63.49-2.32,74.58-1.22,7.34.73,2.38,7.61,7.14,11,6.9,4.9,24.16-3.78,25.54,11.13Z"/>
  <path class="cls-5" d="M483.67,281.37l.07,8.51h12.51v-28.18h-64.67l2.87,5.41,32.23,14.25h17Z"/>
  <path class="cls-5" d="M561.31,261.71h-59.55v28.18h47.32v-17.13h22.87c.96-4.55-6.74-11.04-10.65-11.04Z"/>
  <g class="cls-9">
    <g>
      <rect class="cls-2" x="521.06" y="139.51" width="6.89" height="2.44"/>
      <rect class="cls-2" x="521.06" y="155.53" width="6.89" height="2.44"/>
      <rect class="cls-2" x="521.06" y="171.54" width="6.89" height="2.44"/>
      <rect class="cls-2" x="521.06" y="187.55" width="6.89" height="2.44"/>
      <rect class="cls-2" x="521.06" y="203.57" width="6.89" height="2.44"/>
      <rect class="cls-2" x="521.06" y="219.58" width="6.89" height="2.44"/>
      <rect class="cls-2" x="521.06" y="235.59" width="6.89" height="2.44"/>
      <rect class="cls-2" x="521.06" y="251.61" width="6.89" height="2.44"/>
      <rect class="cls-2" x="521.06" y="267.62" width="6.89" height="2.44"/>
      <rect class="cls-2" x="521.06" y="283.63" width="6.89" height="2.44"/>
    </g>
  </g>
</svg>